<svg xmlns="http://www.w3.org/2000/svg" viewBox="0 0 400 200" fill="none">
  
  <rect x="80" y="60" width="240" height="100" rx="6" fill="#F5B948" stroke="#2A1F1A" stroke-width="4"></rect>
  <rect x="80" y="60" width="120" height="100" rx="6" fill="#E8623D" stroke="#2A1F1A" stroke-width="4"></rect>
  <line x1="200" y1="60" x2="200" y2="160" stroke="#2A1F1A" stroke-width="4"></line>
  <path d="M110 90 L180 90 M110 105 L170 105 M110 120 L180 120 M110 135 L160 135" stroke="#FBF4E6" stroke-width="3" stroke-linecap="round" opacity="0.85"></path>
  <path d="M220 90 L290 90 M220 105 L280 105 M220 120 L290 120 M220 135 L270 135" stroke="#2A1F1A" stroke-width="3" stroke-linecap="round" opacity="0.55"></path>
  
  <g stroke="#C2456E" stroke-width="3" stroke-linecap="round">
    <path d="M58 40 L58 52 M52 46 L64 46"></path>
    <path d="M340 50 L340 60 M335 55 L345 55"></path>
    <path d="M50 150 L50 162 M44 156 L56 156"></path>
    <path d="M348 130 L348 144 M341 137 L355 137"></path>
  </g>
</svg>